<svg width="38" height="38" viewBox="0 0 38 38" fill="none" xmlns="http://www.w3.org/2000/svg">
<g id="Frame 5113258">
<g id="&#231;&#174;&#128;&#231;&#186;&#166;/&#231;&#178;&#190;&#231;&#190;&#142;&#229;&#164;&#135;&#228;&#187;&#189;">
<path id="&#232;&#146;&#153;&#231;&#137;&#136;" fill-rule="evenodd" clip-rule="evenodd" d="M23.1847 0.000488281C28.3439 0.000488281 30.9235 0.000488281 32.894 1.00453C34.6274 1.88771 36.0366 3.29695 36.9198 5.03029C37.9238 7.00083 37.9238 9.58041 37.9238 14.7396L37.9238 23.2606C37.9238 28.4198 37.9238 30.9994 36.9198 32.9699C36.0366 34.7032 34.6274 36.1125 32.894 36.9957C30.9235 37.9997 28.3439 37.9997 23.1847 37.9997L14.7379 37.9997C9.57875 37.9997 6.99917 37.9997 5.02863 36.9957C3.29529 36.1125 1.88604 34.7032 1.00286 32.9699C-0.00117493 30.9994 -0.00117493 28.4198 -0.00117493 23.2606L-0.00117493 14.7396C-0.00117493 9.58041 -0.00117493 7.00083 1.00286 5.03029C1.88604 3.29695 3.29529 1.88771 5.02863 1.00453C6.99917 0.000488281 9.57875 0.000488281 14.7379 0.000488281L23.1847 0.000488281Z" fill="url(#paint0_linear_5148_1337)"/>
<g id="&#228;&#184;&#187;&#229;&#155;&#190;&#229;&#189;&#162;">
<path id="&#229;&#189;&#162;&#231;&#138;&#182;&#231;&#187;&#147;&#229;&#144;&#136;" fill-rule="evenodd" clip-rule="evenodd" d="M13.2151 7.62549C13.7706 7.62549 14.3156 7.77674 14.7919 8.06308L26.4331 15.0614C26.6067 15.1658 26.6068 15.4174 26.4332 15.5219L24.2615 16.8294C23.4698 17.306 22.4795 17.306 21.6878 16.8294L10.4656 10.0731C10.3661 10.0278 10.2969 9.92739 10.2969 9.81079C10.2969 9.78103 10.3014 9.75233 10.3097 9.72533L10.3087 9.72263L10.3077 9.72254C10.714 8.50389 11.8622 7.62549 13.2151 7.62549Z" fill="url(#paint1_linear_5148_1337)"/>
<path id="&#229;&#189;&#162;&#231;&#138;&#182;&#231;&#187;&#147;&#229;&#144;&#136;_2" fill-rule="evenodd" clip-rule="evenodd" d="M10.1504 13.2657C10.1504 13.0567 10.3786 12.9277 10.5577 13.0355L12.9649 14.4848C13.7145 14.9361 14.1729 15.7472 14.1729 16.6222L14.1729 30.1877L14.1723 30.1876C14.1719 30.3228 14.0789 30.4361 13.9536 30.4669L13.9512 30.47L13.9529 30.4714C12.6798 30.7882 11.2972 30.2558 10.5872 29.0701C10.3014 28.5928 10.1504 28.0468 10.1504 27.4902L10.1504 13.2657Z" fill="white"/>
<path id="&#229;&#189;&#162;&#231;&#138;&#182;&#231;&#187;&#147;&#229;&#144;&#136;_3" fill-rule="evenodd" clip-rule="evenodd" d="M29.3608 16.9364L29.3628 16.9367L29.364 16.9356C30.3209 17.9094 30.5403 19.4426 29.8061 20.6688C29.5472 21.101 29.1862 21.4627 28.7549 21.722L17.0692 28.747C16.8901 28.8546 16.6621 28.7256 16.6621 28.5167V25.7195C16.6621 24.8445 17.1205 24.0334 17.8702 23.5821L28.9973 16.8834L28.9977 16.8843L29.0009 16.8847C29.0442 16.8602 29.0942 16.8462 29.1475 16.8462C29.2311 16.8462 29.3067 16.8808 29.3608 16.9364Z" fill="url(#paint2_linear_5148_1337)"/>
</g>
</g>
</g>
<defs>
<linearGradient id="paint0_linear_5148_1337" x1="51.8767" y1="20.3184" x2="20.1761" y2="-14.2208" gradientUnits="userSpaceOnUse">
<stop stop-color="#313252"/>
<stop offset="1" stop-color="#393A5C"/>
</linearGradient>
<linearGradient id="paint1_linear_5148_1337" x1="30.336" y1="12.9216" x2="24.5534" y2="2.74516" gradientUnits="userSpaceOnUse">
<stop stop-color="#FC81B8"/>
<stop offset="1" stop-color="#FFFAFC"/>
</linearGradient>
<linearGradient id="paint2_linear_5148_1337" x1="21.2407" y1="32.7427" x2="33.0375" y2="23.2556" gradientUnits="userSpaceOnUse">
<stop stop-color="#FAFDFF"/>
<stop offset="1" stop-color="#73CDFA"/>
</linearGradient>
</defs>
</svg>
